<?xml version="1.0" encoding="UTF-8"?>
<!-- Uploaded to: SVG Find, www.svgrepo.com, Generator: SVG Find Mixer Tools -->
<svg fill="#000000" width="800px" height="800px" version="1.1" viewBox="144 144 512 512" xmlns="http://www.w3.org/2000/svg">
 <g>
  <path d="m226.81 384.25c-26.047 0-47.23-21.188-47.23-47.23 0-26.047 21.188-47.23 47.23-47.23 26.047 0 47.23 21.188 47.23 47.23 0.003906 26.043-21.184 47.23-47.23 47.23zm0-62.977c-8.6875 0-15.742 7.0547-15.742 15.742s7.0547 15.742 15.742 15.742 15.742-7.0547 15.742-15.742c0.003906-8.6836-7.0547-15.742-15.742-15.742z"/>
  <path d="m289.79 352.77h-31.488c-8.7031 0-15.742-7.043-15.742-15.742 0-8.7031 7.043-15.742 15.742-15.742h31.488c8.7031 0 15.742 7.043 15.742 15.742 0.003906 8.6992-7.0391 15.742-15.742 15.742z"/>
  <path d="m573.18 447.23c-26.047 0-47.23-21.188-47.23-47.23 0-26.047 21.188-47.23 47.23-47.23 26.047 0 47.23 21.188 47.23 47.23s-21.188 47.23-47.23 47.23zm0-62.977c-8.6875 0-15.742 7.0547-15.742 15.742s7.0547 15.742 15.742 15.742 15.742-7.0547 15.742-15.742c0-8.6836-7.0547-15.742-15.742-15.742z"/>
  <path d="m541.7 415.74h-31.488c-8.7031 0-15.742-7.043-15.742-15.742 0-8.7031 7.043-15.742 15.742-15.742h31.488c8.7031 0 15.742 7.043 15.742 15.742s-7.0391 15.742-15.742 15.742z"/>
  <path d="m226.81 510.21c-26.047 0-47.23-21.188-47.23-47.23 0-26.047 21.188-47.23 47.23-47.23 26.047 0 47.23 21.188 47.23 47.23 0.003906 26.043-21.184 47.23-47.23 47.23zm0-62.977c-8.6875 0-15.742 7.0547-15.742 15.742s7.0547 15.742 15.742 15.742 15.742-7.0547 15.742-15.742c0.003906-8.6836-7.0547-15.742-15.742-15.742z"/>
  <path d="m289.79 478.72h-31.488c-8.7031 0-15.742-7.043-15.742-15.742 0-8.7031 7.043-15.742 15.742-15.742h31.488c8.7031 0 15.742 7.043 15.742 15.742 0.003906 8.6992-7.0391 15.742-15.742 15.742z"/>
  <path d="m384.25 525.95h-78.719c-8.7031 0-15.742-7.043-15.742-15.742l-0.003907-220.42c0-8.7031 7.043-15.742 15.742-15.742h78.719c69.449 0 125.95 56.504 125.95 125.95 0.003906 69.445-56.5 125.95-125.95 125.95zm-62.977-31.488h62.977c52.09 0 94.465-42.375 94.465-94.465s-42.375-94.465-94.465-94.465h-62.977z"/>
 </g>
</svg>